<?xml version="1.0" encoding="UTF-8" standalone="no"?>
<svg
   version="1.1"
   width="512"
   height="512"
   viewBox="0 0 512 512"
   xml:space="preserve"
   id="svg1887"
   sodipodi:docname="lightbulb.svg"
   inkscape:version="1.1 (c4e8f9e, 2021-05-24)"
   xmlns:inkscape="http://www.inkscape.org/namespaces/inkscape"
   xmlns:sodipodi="http://sodipodi.sourceforge.net/DTD/sodipodi-0.dtd"
   xmlns="http://www.w3.org/2000/svg"
   xmlns:svg="http://www.w3.org/2000/svg"><sodipodi:namedview
   id="namedview1889"
   pagecolor="#ffffff"
   bordercolor="#666666"
   borderopacity="1.0"
   inkscape:pageshadow="2"
   inkscape:pageopacity="0.0"
   inkscape:pagecheckerboard="0"
   showgrid="false"
   inkscape:zoom="0.83245341"
   inkscape:cx="217.42959"
   inkscape:cy="263.67842"
   inkscape:window-width="1440"
   inkscape:window-height="847"
   inkscape:window-x="0"
   inkscape:window-y="25"
   inkscape:window-maximized="0"
   inkscape:current-layer="svg1887"
   inkscape:snap-object-midpoints="true" />

<defs
   id="defs1873">
</defs>
<path
   id="path1363"
   style="color:#000000;fill:#000000;stroke-linecap:round;-inkscape-stroke:none"
   d="m 256,6.3691406 c -4.69442,0 -8.5,3.8055794 -8.5,8.5000004 v 54.33789 c 0,4.69442 3.80558,8.5 8.5,8.5 4.69442,0 8.5,-3.80558 8.5,-8.5 v -54.33789 c 0,-4.694421 -3.80558,-8.5000004 -8.5,-8.5000004 z M 374.23633,38.044922 c -0.74255,-1.21e-4 -1.48192,0.09706 -2.19922,0.289062 -2.17761,0.582931 -4.03446,2.007015 -5.16211,3.958985 l -27.16797,47.058593 c -2.34727,4.065542 -0.95427,9.264154 3.11133,11.611328 4.06554,2.34727 9.26416,0.95427 11.61133,-3.111328 l 27.16797,-47.058593 c 2.34727,-4.065542 0.95427,-9.264154 -3.11133,-11.611328 -1.29236,-0.745309 -2.75813,-1.137347 -4.25,-1.136719 z m -236.47266,0.0098 c -1.49205,-3.4e-5 -2.95783,0.39268 -4.25,1.138671 -4.0656,2.347174 -5.4586,7.545787 -3.11133,11.611329 l 27.16993,47.058593 c 2.34784,4.064875 7.54629,5.456965 11.61132,3.109375 4.06443,-2.347116 5.45727,-7.544267 3.11133,-11.609375 L 145.125,42.304688 c -1.1268,-1.952302 -2.98294,-3.377076 -5.16016,-3.960938 -0.71793,-0.19217 -1.45796,-0.289353 -2.20117,-0.289062 z M 51.210938,124.60156 c -0.742552,-1.2e-4 -1.481919,0.0971 -2.199219,0.28906 -2.177942,0.5834 -4.034854,2.00823 -5.16211,3.96094 -2.347269,4.06554 -0.954268,9.26416 3.111329,11.61133 l 47.058593,27.16992 c 4.065542,2.34727 9.264159,0.95427 11.611329,-3.11133 2.34726,-4.06554 0.95426,-9.26415 -3.11133,-11.61132 L 55.460938,125.74023 c -1.292174,-0.74599 -2.757949,-1.1387 -4.25,-1.13867 z m 409.585942,0 c -1.49205,-3e-5 -2.95783,0.39268 -4.25,1.13867 l -47.0586,27.16993 c -4.06559,2.34717 -5.45859,7.54578 -3.11133,11.61132 2.34717,4.0656 7.54579,5.4586 11.61133,3.11133 l 47.0586,-27.16992 c 4.06559,-2.34718 5.45859,-7.54579 3.11132,-11.61133 -1.12726,-1.95271 -2.98417,-3.37754 -5.16211,-3.96094 -0.7173,-0.192 -1.45666,-0.28918 -2.19921,-0.28906 z m -205.16211,9.53516 c -58.99514,0 -116.56641,46.85626 -116.56641,109.32617 0,31.29031 14.63442,59.26973 28.41016,84.29492 13.77573,25.0252 26.30273,47.3392 26.30273,63.68164 4.3e-4,2.25419 0.89617,4.41592 2.49023,6.00977 7.18686,7.18685 13.01285,14.14916 22.01758,19.47266 2.10886,1.24673 4.37344,2.3453 6.79492,3.31835 l -3.90039,0.0156 c -4.69443,0.0172 -8.48604,3.83682 -8.46875,8.53125 0.0384,3.61734 2.36204,6.81408 5.79102,7.9668 -3.45193,1.16065 -5.78092,4.39138 -5.79102,8.0332 0.0384,3.61734 2.36204,6.81408 5.79102,7.9668 -3.45193,1.16065 -5.78092,4.39138 -5.79102,8.0332 0.0172,4.6952 3.83801,8.48713 8.53321,8.46875 l 4.04492,-0.0156 c -2.81812,1.46559 -4.58392,4.38021 -4.57813,7.55665 0.0226,4.69521 3.84777,8.48277 8.54297,8.45898 l 11.62891,-0.0566 c -0.007,0.0891 -0.0138,0.17833 -0.0195,0.26758 -4.3e-4,8.11433 6.57707,14.69271 14.6914,14.69336 8.1151,4.3e-4 14.69379,-6.57826 14.69336,-14.69336 -10e-4,-0.13806 -0.005,-0.2761 -0.01,-0.41407 l 11.85742,-0.0586 c 4.69368,-0.0237 8.47974,-3.84734 8.45703,-8.54102 -0.0297,-3.12847 -1.77555,-5.98774 -4.54492,-7.44335 l 4.07812,-0.0156 c 4.69367,-0.0183 8.48409,-3.83758 8.4668,-8.53125 -0.0407,-3.59312 -2.33646,-6.77248 -5.73437,-7.94141 3.4384,-1.18311 5.74339,-4.42235 5.73437,-8.05859 -0.0407,-3.59312 -2.33646,-6.77248 -5.73437,-7.94141 3.4384,-1.18311 5.74339,-4.42235 5.73437,-8.05859 -0.0183,-4.69367 -3.83758,-8.48409 -8.53125,-8.4668 l -3.35742,0.0117 c 2.26113,-0.93603 4.39624,-1.97302 6.38086,-3.14843 9.01568,-5.33964 14.8459,-12.30489 21.95117,-19.41016 1.59406,-1.59385 2.4898,-3.75558 2.49023,-6.00977 0,-16.03647 13.43935,-38.49329 28.10547,-63.68168 14.66612,-25.18839 30.18317,-53.28191 29.53711,-84.29488 -1.2804,-61.47369 -60.37886,-109.32621 -119.49783,-109.32621 z m 0,17 c 49.82189,0 101.45081,41.86807 102.50195,92.32617 0.51982,24.9529 -12.78493,51.28473 -27.23242,76.09766 -13.68796,23.50845 -28.56856,45.12657 -30.11328,68.0625 -6.27606,6.36691 -11.03438,11.42782 -16.40625,14.60937 -6.04109,3.57791 -13.7933,5.89258 -28.74805,5.89258 -14.96883,0 -22.68472,-2.28333 -28.69727,-5.83789 -5.34497,-3.1599 -10.11187,-8.22644 -16.43945,-14.64453 -1.44294,-22.67497 -15.26639,-44.71581 -28.12891,-68.08203 -13.58071,-24.67092 -26.30273,-50.23177 -26.30273,-76.09766 0,-51.84252 49.62067,-92.32617 99.56641,-92.32617 z M 19.535156,242.83398 c -4.69442,0 -8.5,3.80558 -8.5,8.5 0,4.69442 3.80558,8.5 8.5,8.5 h 54.337891 c 4.69442,0 8.5,-3.80558 8.5,-8.5 0,-4.69442 -3.80558,-8.5 -8.5,-8.5 z m 418.595704,0 c -4.69442,0 -8.5,3.80558 -8.5,8.5 0,4.69442 3.80558,8.5 8.5,8.5 h 54.33984 c 4.69442,0 8.5,-3.80558 8.5,-8.5 0,-4.69442 -3.80558,-8.5 -8.5,-8.5 z M 98.261719,333.9043 c -1.492051,-3e-5 -2.957826,0.39268 -4.25,1.13867 l -47.058594,27.16992 c -4.065596,2.34717 -5.458597,7.54579 -3.111328,11.61133 2.347174,4.0656 7.545786,5.4586 11.611328,3.11133 l 47.058595,-27.16993 c 4.06559,-2.34717 5.45859,-7.54578 3.11133,-11.61132 -1.12719,-1.95156 -2.98328,-3.3756 -5.16016,-3.95899 -0.717844,-0.19283 -1.457879,-0.29067 -2.201171,-0.29101 z m 315.474611,0 c -0.74255,-1.2e-4 -1.48192,0.0971 -2.19922,0.28906 -2.17722,0.58386 -4.03336,2.00864 -5.16016,3.96094 -2.34759,4.06503 -0.9555,9.26348 3.10938,11.61132 l 47.05859,27.16797 c 4.06554,2.34727 9.26415,0.95427 11.61133,-3.11132 2.34727,-4.06554 0.95427,-9.26416 -3.11133,-11.61133 l -47.05859,-27.16797 c -1.29217,-0.74599 -2.75795,-1.1387 -4.25,-1.13867 z"
   sodipodi:nodetypes="ssssssscsccccccccccccccccccccccccccscccccccsssccscccccccccccccccccccccccccccsccsssssscssscssssssssssscsssssccccccccccccccscccc" /><path
   id="path7538"
   style="color:#000000;fill:#000000;stroke-linecap:round;-inkscape-stroke:none"
   d="m 203.672,183.76017 c 2.28589,4.10055 0.50369,7.11481 -2.87698,10.49548 -9.73984,9.90883 -22.40145,30.2899 -22.40145,45.35111 0,4.6945 -3.7075,9.1571 -8.06868,9.1571 -4.69449,1.1e-4 -8.06868,-4.46263 -8.06868,-9.1571 0,-24.22198 13.7512,-43.40126 30.92027,-58.19281 4.39323,-2.53643 8.06945,-1.85585 10.49552,2.34622 z"
   sodipodi:nodetypes="ccscscc" /><g
   id="g2011"
   style="fill:#000000"
   transform="translate(-207.10579,-86.607882)" />
</svg>
