<?xml version="1.0" encoding="UTF-8" standalone="no"?>
<svg
   version="1.1"
   width="512"
   height="512"
   viewBox="0 0 512 512"
   xml:space="preserve"
   id="svg1887"
   sodipodi:docname="bucket.svg"
   inkscape:version="1.1 (c4e8f9e, 2021-05-24)"
   xmlns:inkscape="http://www.inkscape.org/namespaces/inkscape"
   xmlns:sodipodi="http://sodipodi.sourceforge.net/DTD/sodipodi-0.dtd"
   xmlns="http://www.w3.org/2000/svg"
   xmlns:svg="http://www.w3.org/2000/svg"><sodipodi:namedview
   id="namedview1889"
   pagecolor="#ffffff"
   bordercolor="#666666"
   borderopacity="1.0"
   inkscape:pageshadow="2"
   inkscape:pageopacity="0.0"
   inkscape:pagecheckerboard="0"
   showgrid="false"
   inkscape:zoom="1.0230411"
   inkscape:cx="318.16904"
   inkscape:cy="282.97984"
   inkscape:window-width="1932"
   inkscape:window-height="1303"
   inkscape:window-x="0"
   inkscape:window-y="25"
   inkscape:window-maximized="0"
   inkscape:current-layer="g9485"
   inkscape:snap-global="false" />

<defs
   id="defs1873">
</defs>
<g
   id="g2011"
   style="fill:#000000"
   transform="translate(-207.10579,-86.607882)" />
<g
   id="g9485"
   transform="translate(27.508279,-350.71161)"><path
     id="path11508"
     style="color:#000000;fill:#000000;stroke-linecap:round;stroke-linejoin:round;-inkscape-stroke:none"
     d="M 213.91602 29.857422 C 211.99631 29.848422 210.06497 30.503454 208.25 31.802734 C 208.2015 31.833534 172.48047 67.539062 172.48047 67.539062 L 172.4707 67.552734 L 172.46094 67.560547 L 157.9082 82.21875 C 143.78893 72.00382 129.29795 63.146484 109.375 63.146484 C 80.59119 63.146484 57.076172 86.661502 57.076172 115.44531 C 57.076172 133.84592 66.650343 150.10919 81.101562 159.42188 L 8.5273438 231.14062 C 4.1662898 238.95078 1.7523781 248.44657 1.7050781 256.39453 C 1.7050781 266.97395 5.5022681 277.13079 12.267578 285.0957 C 58.167278 331.39699 103.09945 381.54309 142.72266 421.32812 C 145.3992 423.73817 148.07258 426.15649 150.81445 427.68945 C 157.72518 431.92357 165.72944 434.23633 173.98242 434.23633 C 181.57097 434.23633 188.93991 432.27541 195.44336 428.67773 C 199.41446 426.19371 202.28492 424.30568 205.48828 421.09766 C 269.54757 356.98175 333.90385 293.1614 397.24414 228.35352 C 404.70905 230.71893 409.01432 234.72778 412.22656 239.20117 C 422.37726 252.58925 423.13962 281.80271 422.82812 315.97656 C 422.68912 331.2334 417.1282 359.55062 411.7832 384.30859 C 409.1107 396.68757 406.5152 408.2828 404.7168 417.43359 C 403.8176 422.00898 403.11524 425.95623 403.52344 434.27734 C 403.93164 442.59845 406.54762 453.31625 414.29102 463.21484 C 422.15312 473.26501 434.07254 482.10481 454.46094 482.13477 C 470.05834 482.42534 483.61701 474.30277 493.38281 463.98047 C 511.96658 440.32762 513.48243 432.60542 506.33398 408.91602 C 504.00948 401.21358 501.00093 392.18814 497.98633 383.15234 C 494.97173 374.11654 491.95057 365.07217 489.63867 357.50195 C 487.32687 349.93173 485.77332 343.37339 485.60742 341.85547 C 485.44152 340.33756 484.93303 337.35225 484.76953 333.65234 C 484.60593 329.95242 484.5336 325.05215 484.5332 319.39648 C 484.5322 308.08514 484.80925 293.72182 485.09375 279.08594 C 485.37825 264.45008 485.67127 249.53791 485.70117 236.98438 C 485.18149 198.17155 465.69533 176.51476 447.31055 172.45703 C 428.92577 168.3993 403.88209 174.99523 367.5293 182.70898 L 219.50977 31.896484 C 217.74459 30.539634 215.83573 29.866402 213.91602 29.857422 z M 213.74219 50.298828 L 380.57422 221.09766 L 358.70703 243.48047 L 190.48242 73.574219 L 213.74219 50.298828 z M 109.375 80.144531 C 123.57355 80.144531 133.61005 85.768007 145.7793 94.435547 L 93.185547 147.41016 C 80.450757 137.8205 74.349482 128.84553 74.076172 115.44336 C 74.076172 95.847029 89.77867 80.144531 109.375 80.144531 z M 178.48242 85.619141 L 346.76953 255.58789 C 295.78082 306.19011 245.49917 357.63752 194.4082 408.06836 C 189.21603 413.90186 181.79191 417.23438 173.98242 417.23438 C 166.88991 417.23438 160.10387 414.48342 155.02148 409.5918 C 109.50527 363.09293 64.666052 315.28632 25.701172 274.6543 C 21.220492 269.6629 18.705078 263.17355 18.705078 256.39258 C 18.705078 248.81387 21.845163 241.58424 27.382812 236.41016 C 50.398813 213.65718 73.450059 190.88074 96.480469 168.12109 L 205.07227 209.46875 C 205.05047 209.71057 205.03358 209.95281 205.02148 210.19531 C 205.02134 220.23281 213.15781 228.37015 223.19531 228.37109 C 233.23357 228.37123 241.37123 220.23357 241.37109 210.19531 C 241.37123 200.15705 233.23357 192.01939 223.19531 192.01953 C 219.91065 192.03073 216.6904 192.93177 213.87695 194.62695 L 109.6582 154.94727 L 178.48242 85.619141 z M 433.58398 186.54688 C 435.68835 186.62931 437.66908 186.86025 439.49805 187.27148 C 454.12976 190.56139 463.81835 204.98119 466.21289 211.78125 C 467.06054 217.46066 468.73047 224.69644 468.70117 236.94336 C 468.67217 249.26303 468.3802 264.11778 468.0957 278.75586 C 467.8111 293.39395 467.5322 307.81186 467.5332 319.39844 C 467.5336 325.19175 467.60226 330.2699 467.78516 334.4043 C 467.95306 338.20121 468.03826 340.8078 468.78906 343.78906 C 469.35966 348.98352 471.08281 354.94866 473.37891 362.4668 C 475.79321 370.37257 478.84668 379.50296 481.85938 388.5332 C 484.87218 397.56344 487.84609 406.49499 490.05859 413.82617 C 495.99818 429.97408 491.31311 441.15529 481.0332 452.29688 C 473.6215 460.13091 464.10735 465.33299 451.43945 465.23633 C 438.77155 465.13963 432.97274 459.5039 427.68164 452.74023 C 422.39064 445.97655 420.37156 438.26597 420.13086 433.5332 C 419.89016 428.80042 420.53614 425.09904 421.39844 420.71094 C 423.12324 411.93474 425.71149 400.35152 428.40039 387.89648 C 433.77819 362.98639 439.65397 335.01411 439.82617 316.13086 C 440.13707 282.02455 441.86374 250.15142 425.77344 228.92969 C 419.21719 218.92951 407.58678 212.49515 394.25 210.76953 L 380.23242 195.71094 C 398.02819 192.66639 418.85345 185.96982 433.58398 186.54688 z M 479.33008 413.83008 C 478.93455 413.84302 478.51994 413.87157 478.08789 413.91602 C 474.63152 414.27162 471.18658 418.45258 471.7168 423.11719 C 473.44566 438.3284 465.63323 443.73803 450.08789 444.70312 C 445.40243 444.99433 441.83954 449.02939 442.13086 453.71484 C 442.42206 458.4003 446.45713 461.96123 451.14258 461.66992 C 475.72919 460.14357 490.53935 440.47289 488.62891 421.37695 C 488.40451 419.13397 487.28594 417.07701 485.53711 415.6543 C 484.00689 414.40943 482.09874 413.73949 479.33008 413.83008 z "
     transform="translate(-27.508279,350.71161)" /><g
     id="g17874"
     transform="rotate(40.083691,-503.13713,395.26047)"
     style="fill:#ff0000"
     inkscape:transform-center-x="-8.6953161"
     inkscape:transform-center-y="8.6531057"><g
       id="g17870"
       style="fill:#ff0000"
       transform="translate(-207.10579,-86.607882)" /></g></g></svg>
