<?xml version="1.0" encoding="UTF-8" standalone="no"?>
<svg
   version="1.1"
   width="512"
   height="512"
   viewBox="0 0 512 512"
   xml:space="preserve"
   id="svg1887"
   sodipodi:docname="pencil.svg"
   inkscape:version="1.1 (c4e8f9e, 2021-05-24)"
   xmlns:inkscape="http://www.inkscape.org/namespaces/inkscape"
   xmlns:sodipodi="http://sodipodi.sourceforge.net/DTD/sodipodi-0.dtd"
   xmlns="http://www.w3.org/2000/svg"
   xmlns:svg="http://www.w3.org/2000/svg"><sodipodi:namedview
   id="namedview1889"
   pagecolor="#ffffff"
   bordercolor="#666666"
   borderopacity="1.0"
   inkscape:pageshadow="2"
   inkscape:pageopacity="0.0"
   inkscape:pagecheckerboard="0"
   showgrid="false"
   inkscape:zoom="2.9980974"
   inkscape:cx="387.7459"
   inkscape:cy="80.21754"
   inkscape:window-width="1932"
   inkscape:window-height="1303"
   inkscape:window-x="0"
   inkscape:window-y="25"
   inkscape:window-maximized="0"
   inkscape:current-layer="svg1887" />

<defs
   id="defs1873">
</defs>
<path
   id="path7538"
   style="color:#000000;fill:#000000;stroke-linecap:round;-inkscape-stroke:none"
   d="M 423.68164,1 C 403.32106,0.166161 384.58316,6.944203 369.17773,18.90625 363.72055,23.21629 36.710937,351.11914 36.710938,351.11914 L 2.390625,495.31836 c -1.93602,7.25701 -1.46011875,10.17677 2.1757812,13.36914 3.40318,2.98803 5.2161463,3.03572 15.5664058,0.40039 L 159.77148,476.17773 c 0,0 329.93602,-327.38539 335.65821,-335.62304 C 508.873,122.20661 510.72663,101.65379 510.73047,88.3125 511.92309,62.87967 501.3108,41.250215 485.03125,25.046875 463.06358,5.546843 443.37835,1.007804 423.68164,1 Z m -0.83398,14.302734 c 19.83126,0.847694 38.5037,11.088832 51.14648,24.378907 20.64605,23.44441 31.47117,52.136148 11.5957,87.480469 -2.00127,3.66899 -16.8164,16.23437 -16.8164,16.23437 l -99.5625,-99.666011 c 0,0 12.40351,-13.434327 17.74023,-18.4375 10.26875,-9.44272 23.99773,-10.498851 35.89649,-9.990235 z m 45.67187,35.923828 c -2.25432,0.03751 -4.40139,0.96912 -5.96875,2.589844 -3.26371,3.374592 -3.17364,8.756049 0.20117,12.019532 12.13864,11.738465 11.31538,28.761624 0.043,39.509762 -3.39736,3.2398 -3.52503,8.6203 -0.28515,12.01758 3.23979,3.39736 8.62029,3.52503 12.01757,0.28516 17.82851,-16.99928 18.69717,-45.993948 0.043,-64.033206 -1.6204,-1.567053 -3.79691,-2.426275 -6.05078,-2.388672 z m -112.27344,5.429688 99.57813,99.56836 -21.94727,21.51367 -99.43164,-99.322264 z m -34.71875,34.884766 21.54102,21.404294 -242.0918,242.09571 H 57.84375 Z m 34.4961,34.332034 29.42187,29.97851 -241.21875,242.32032 h -29.52929 v -30.97852 z m 43.11914,43.14453 21.39258,21.93359 -262.70508,263.21485 V 410.32617 Z M 96.660156,372.26953 v 38.57227 c 0.0509,2.31036 1.667238,4.44623 4.585934,4.58398 h 38.54688 V 462.4082 L 87.230469,474.50391 C 77.159699,451.97661 62.042285,429.56302 37.453125,425.26758 l 12.550781,-52.58203 z m -63.060547,70.52539 c 15.29277,4.03554 33.11738,22.40205 35.84961,35.88477 l -46.50586,10.47461 z"
   sodipodi:nodetypes="ccccsccccccscccccsccccccsccccccccccccccccccccccccccccccccccc" /><g
   id="g2011"
   style="fill:#000000"
   transform="translate(-207.10579,-86.607882)" />
</svg>
